<?xml version="1.0" encoding="UTF-8"?>
<svg xmlns="http://www.w3.org/2000/svg" xmlns:xlink="http://www.w3.org/1999/xlink" width="128pt" height="128pt" viewBox="0 0 128 128" version="1.1">
<g id="surface1224752">
<path style=" stroke:none;fill-rule:nonzero;fill:rgb(32.54902%,42.745098%,99.607843%);fill-opacity:1;" d="M 20 20 L 20 108 L 108 108 L 108 20 Z M 28 28 L 100 28 L 100 100 L 28 100 Z M 44 40 L 44 87.960938 C 67.71875 87.960938 72.464844 88.28125 76.90625 86.960938 C 79.507812 86.160156 86.625 83.601562 86.625 74.601562 C 86.625 70.601562 85.425781 63.835938 77.585938 62.15625 L 77.585938 62.039062 L 76.109375 62.039062 C 80.109375 60.238281 82.625 56.84375 82.625 51.84375 C 82.625 50.5625 82.984375 40 68.984375 40 Z M 52 48 L 68 48 C 74.035156 48 74.625 51.414062 74.625 53.960938 C 74.625 60.175781 68.121094 60 68 60 L 52 60 Z M 52 68 L 71.039062 68 C 78.484375 68 78.625 72.707031 78.625 73.921875 C 78.625 80.160156 72.179688 80 71.398438 80 L 52 80 Z M 52 68 "/>
</g>
</svg>
