<?xml version="1.0" encoding="UTF-8"?>
<svg xmlns="http://www.w3.org/2000/svg" xmlns:xlink="http://www.w3.org/1999/xlink" width="128pt" height="128pt" viewBox="0 0 128 128" version="1.1">
<g id="surface1223614">
<path style=" stroke:none;fill-rule:nonzero;fill:rgb(32.54902%,42.745098%,99.607843%);fill-opacity:1;" d="M 0 28 L 0 100 L 128 100 L 128 28 Z M 8 36 L 120 36 L 120 92 L 8 92 Z M 38 48 C 32.46875 48 28 52.46875 28 58 L 28 70 C 28 75.53125 32.46875 80 38 80 C 43.53125 80 48 75.53125 48 70 L 48 68 L 40 68 L 40 70 C 40 70.859375 38.859375 72 38 72 C 37.140625 72 36 70.859375 36 70 L 36 58 C 36 57.140625 37.140625 56 38 56 C 38.859375 56 40 57.140625 40 58 L 40 60 L 48 60 L 48 58 C 48 52.46875 43.53125 48 38 48 Z M 62 48 C 56.46875 48 52 52.46875 52 58 C 52 63.53125 56.46875 68 62 68 C 62.859375 68 64 69.140625 64 70 C 64 71.203125 63.53125 72 62 72 C 60.53125 72 60.296875 71.6875 60.25 71.625 C 60.203125 71.5625 60 71.3125 60 70.375 L 52 70.375 C 52 72.640625 52.65625 75.1875 54.5 77.125 C 56.34375 79.0625 59.078125 80 62 80 C 67.671875 80 72 75.203125 72 70 C 72 64.46875 67.53125 60 62 60 C 61.140625 60 60 58.859375 60 58 C 60 57.140625 61.140625 56 62 56 C 63.0625 56 63.390625 56.25 63.625 56.5 C 63.859375 56.75 64 57.171875 64 57.625 L 72 57.625 C 72 55.265625 71.140625 52.859375 69.375 51 C 67.609375 49.140625 64.9375 48 62 48 Z M 86 48 C 80.46875 48 76 52.46875 76 58 C 76 63.53125 80.46875 68 86 68 C 86.859375 68 88 69.140625 88 70 C 88 71.203125 87.53125 72 86 72 C 84.53125 72 84.296875 71.6875 84.25 71.625 C 84.203125 71.5625 84 71.3125 84 70.375 L 76 70.375 C 76 72.640625 76.65625 75.1875 78.5 77.125 C 80.34375 79.0625 83.078125 80 86 80 C 91.671875 80 96 75.203125 96 70 C 96 64.46875 91.53125 60 86 60 C 85.140625 60 84 58.859375 84 58 C 84 57.140625 85.140625 56 86 56 C 87.0625 56 87.390625 56.25 87.625 56.5 C 87.859375 56.75 88 57.171875 88 57.625 L 96 57.625 C 96 55.265625 95.140625 52.859375 93.375 51 C 91.609375 49.140625 88.9375 48 86 48 Z M 86 48 "/>
</g>
</svg>
