<?xml version="1.0" encoding="UTF-8"?>
<svg xmlns="http://www.w3.org/2000/svg" xmlns:xlink="http://www.w3.org/1999/xlink" width="128pt" height="128pt" viewBox="0 0 128 128" version="1.1">
<g id="surface1224370">
<path style=" stroke:none;fill-rule:nonzero;fill:rgb(32.54902%,42.745098%,99.607843%);fill-opacity:1;" d="M 0 28 L 0 100 L 128 100 L 128 28 Z M 8 36 L 120 36 L 120 92 L 8 92 Z M 20 48 L 20 80 L 28 80 L 28 68 L 32 68 L 32 80 L 40 80 L 40 48 L 32 48 L 32 60 L 28 60 L 28 48 Z M 44 48 L 44 56 L 48 56 L 48 80 L 56 80 L 56 56 L 60 56 L 60 48 Z M 64 48 L 64 80 L 72 80 L 72 61.375 L 72.75 62.375 L 76 66.625 L 79.25 62.375 L 80 61.375 L 80 80 L 88 80 L 88 48 L 80 48 L 78.75 49.625 L 76 53.25 L 73.25 49.625 L 72 48 Z M 92 48 L 92 80 L 108 80 L 108 72 L 100 72 L 100 48 Z M 92 48 "/>
</g>
</svg>
