<?xml version="1.0" encoding="UTF-8"?>
<svg xmlns="http://www.w3.org/2000/svg" xmlns:xlink="http://www.w3.org/1999/xlink" width="128pt" height="128pt" viewBox="0 0 128 128" version="1.1">
<g id="surface1223751">
<path style=" stroke:none;fill-rule:nonzero;fill:rgb(32.54902%,42.745098%,99.607843%);fill-opacity:1;" d="M 0 28 L 0 100 L 128 100 L 128 28 Z M 8 36 L 120 36 L 120 92 L 8 92 Z M 48 48 L 48 70 C 48 70.859375 46.859375 72 46 72 C 45.140625 72 44 70.859375 44 70 L 44 68 L 36 68 L 36 70 C 36 75.53125 40.46875 80 46 80 C 51.53125 80 56 75.53125 56 70 L 56 48 Z M 74 48 C 68.46875 48 64 52.46875 64 58 C 64 63.53125 68.46875 68 74 68 C 74.859375 68 76 69.140625 76 70 C 76 71.203125 75.53125 72 74 72 C 72.53125 72 72.296875 71.6875 72.25 71.625 C 72.203125 71.5625 72 71.3125 72 70.375 L 64 70.375 C 64 72.640625 64.65625 75.1875 66.5 77.125 C 68.34375 79.0625 71.078125 80 74 80 C 79.671875 80 84 75.203125 84 70 C 84 64.46875 79.53125 60 74 60 C 73.140625 60 72 58.859375 72 58 C 72 57.140625 73.140625 56 74 56 C 75.0625 56 75.390625 56.25 75.625 56.5 C 75.859375 56.75 76 57.171875 76 57.625 L 84 57.625 C 84 55.265625 83.140625 52.859375 81.375 51 C 79.609375 49.140625 76.9375 48 74 48 Z M 74 48 "/>
</g>
</svg>
