<?xml version="1.0" encoding="UTF-8"?>
<svg xmlns="http://www.w3.org/2000/svg" xmlns:xlink="http://www.w3.org/1999/xlink" width="128pt" height="128pt" viewBox="0 0 128 128" version="1.1">
<g id="surface1233929">
<path style=" stroke:none;fill-rule:nonzero;fill:rgb(32.54902%,42.745098%,99.607843%);fill-opacity:1;" d="M 8 32 L 8 96 L 120 96 L 120 32 Z M 16 40 L 112 40 L 112 88 L 16 88 Z M 28 48 L 28 80 L 36 80 L 36 72 C 42.578125 72 48 66.578125 48 60 C 48 53.421875 42.578125 48 36 48 Z M 52 48 L 52 80 L 60 80 L 60 68 L 68 68 L 68 80 L 76 80 L 76 48 L 68 48 L 68 60 L 60 60 L 60 48 Z M 84 48 L 84 80 L 92 80 L 92 72 C 98.578125 72 104 66.578125 104 60 C 104 53.421875 98.578125 48 92 48 Z M 36 56 C 38.265625 56 40 57.734375 40 60 C 40 62.265625 38.265625 64 36 64 Z M 92 56 C 94.265625 56 96 57.734375 96 60 C 96 62.265625 94.265625 64 92 64 Z M 92 56 "/>
</g>
</svg>
