<?xml version="1.0" encoding="UTF-8"?>
<svg xmlns="http://www.w3.org/2000/svg" xmlns:xlink="http://www.w3.org/1999/xlink" width="128pt" height="128pt" viewBox="0 0 128 128" version="1.1">
<g id="surface1222760">
<path style=" stroke:none;fill-rule:nonzero;fill:rgb(32.54902%,42.745098%,99.607843%);fill-opacity:1;" d="M 45.617188 13.4375 C 42.234375 13.214844 38.914062 13.816406 36 15.5 C 32.117188 17.742188 29.53125 21.570312 28.140625 25.976562 C 26.75 30.382812 26.429688 35.460938 26.9375 41.007812 C 26.988281 41.570312 27.085938 42.15625 27.15625 42.726562 C 26.625 42.953125 26.066406 43.160156 25.554688 43.398438 C 20.5 45.730469 16.261719 48.546875 13.140625 51.953125 C 10.019531 55.359375 8 59.515625 8 64 C 8 68.484375 10.019531 72.640625 13.140625 76.046875 C 16.261719 79.453125 20.5 82.269531 25.554688 84.601562 C 26.066406 84.839844 26.625 85.046875 27.15625 85.273438 C 27.085938 85.84375 26.988281 86.429688 26.9375 86.992188 C 26.429688 92.539062 26.75 97.617188 28.140625 102.023438 C 29.53125 106.429688 32.117188 110.257812 36 112.5 C 39.882812 114.742188 44.488281 115.070312 49 114.070312 C 53.511719 113.070312 58.066406 110.804688 62.617188 107.59375 C 63.078125 107.269531 63.539062 106.890625 64 106.546875 C 64.460938 106.890625 64.921875 107.269531 65.382812 107.59375 C 69.933594 110.804688 74.488281 113.070312 79 114.070312 C 83.511719 115.070312 88.117188 114.742188 92 112.5 C 95.882812 110.257812 98.46875 106.429688 99.859375 102.023438 C 101.25 97.617188 101.570312 92.539062 101.0625 86.992188 C 101.011719 86.429688 100.914062 85.84375 100.84375 85.273438 C 101.375 85.046875 101.933594 84.839844 102.445312 84.601562 C 107.5 82.269531 111.738281 79.453125 114.859375 76.046875 C 117.980469 72.640625 120 68.484375 120 64 C 120 59.515625 117.980469 55.359375 114.859375 51.953125 C 111.738281 48.546875 107.5 45.730469 102.445312 43.398438 C 101.933594 43.160156 101.375 42.953125 100.84375 42.726562 C 100.914062 42.15625 101.011719 41.570312 101.0625 41.007812 C 101.570312 35.460938 101.25 30.382812 99.859375 25.976562 C 98.46875 21.570312 95.882812 17.742188 92 15.5 C 88.117188 13.257812 83.511719 12.929688 79 13.929688 C 74.488281 14.929688 69.933594 17.195312 65.382812 20.40625 C 64.921875 20.730469 64.460938 21.109375 64 21.453125 C 63.539062 21.109375 63.078125 20.730469 62.617188 20.40625 C 58.066406 17.195312 53.511719 14.929688 49 13.929688 C 47.871094 13.679688 46.746094 13.511719 45.617188 13.4375 Z M 45.09375 21.40625 C 45.777344 21.457031 46.5 21.570312 47.273438 21.742188 C 50.296875 22.414062 53.917969 24.109375 57.734375 26.765625 C 54.554688 29.78125 51.425781 33.214844 48.4375 37.054688 C 43.625 37.722656 39.089844 38.707031 34.890625 39.953125 C 34.5 35.320312 34.835938 31.335938 35.765625 28.382812 C 36.71875 25.359375 38.144531 23.5 40 22.429688 C 41.390625 21.625 43.046875 21.253906 45.09375 21.40625 Z M 82.90625 21.40625 C 84.953125 21.253906 86.609375 21.625 88 22.429688 C 89.855469 23.5 91.28125 25.359375 92.234375 28.382812 C 93.164062 31.335938 93.5 35.320312 93.109375 39.953125 C 88.910156 38.707031 84.375 37.722656 79.5625 37.054688 C 76.574219 33.214844 73.445312 29.78125 70.265625 26.765625 C 74.082031 24.109375 77.703125 22.414062 80.726562 21.742188 C 81.5 21.570312 82.222656 21.457031 82.90625 21.40625 Z M 64 31.835938 C 65.40625 33.136719 66.808594 34.582031 68.210938 36.09375 C 66.816406 36.042969 65.421875 36 64 36 C 62.578125 36 61.183594 36.042969 59.789062 36.09375 C 61.191406 34.582031 62.59375 33.136719 64 31.835938 Z M 64 44 C 67.859375 44 71.597656 44.226562 75.195312 44.609375 C 77.324219 47.535156 79.390625 50.660156 81.320312 54 C 83.25 57.339844 84.921875 60.691406 86.390625 64 C 84.921875 67.308594 83.25 70.660156 81.320312 74 C 79.390625 77.339844 77.324219 80.464844 75.195312 83.390625 C 71.597656 83.773438 67.859375 84 64 84 C 60.140625 84 56.402344 83.773438 52.804688 83.390625 C 50.675781 80.464844 48.609375 77.339844 46.679688 74 C 44.75 70.660156 43.078125 67.308594 41.609375 64 C 43.078125 60.691406 44.75 57.339844 46.679688 54 C 48.609375 50.660156 50.675781 47.535156 52.804688 44.609375 C 56.402344 44.226562 60.140625 44 64 44 Z M 41.9375 46.398438 C 41.199219 47.582031 40.460938 48.769531 39.75 50 C 39.039062 51.230469 38.382812 52.460938 37.726562 53.695312 C 37.117188 51.726562 36.570312 49.785156 36.148438 47.921875 C 37.976562 47.355469 39.929688 46.855469 41.9375 46.398438 Z M 86.0625 46.398438 C 88.070312 46.855469 90.023438 47.355469 91.851562 47.921875 C 91.429688 49.785156 90.882812 51.726562 90.273438 53.695312 C 89.617188 52.460938 88.960938 51.230469 88.25 50 C 87.539062 48.769531 86.800781 47.582031 86.0625 46.398438 Z M 28.617188 50.8125 C 29.640625 55.074219 31.050781 59.492188 32.882812 64 C 31.050781 68.507812 29.640625 72.925781 28.617188 77.1875 C 24.410156 75.210938 21.128906 72.921875 19.039062 70.640625 C 16.898438 68.304688 16 66.144531 16 64 C 16 61.855469 16.898438 59.695312 19.039062 57.359375 C 21.128906 55.078125 24.410156 52.789062 28.617188 50.8125 Z M 99.382812 50.8125 C 103.589844 52.789062 106.871094 55.078125 108.960938 57.359375 C 111.101562 59.695312 112 61.855469 112 64 C 112 66.144531 111.101562 68.304688 108.960938 70.640625 C 106.871094 72.921875 103.589844 75.210938 99.382812 77.1875 C 98.359375 72.925781 96.949219 68.507812 95.117188 64 C 96.949219 59.492188 98.359375 55.074219 99.382812 50.8125 Z M 64 52 C 57.421875 52 52 57.421875 52 64 C 52 70.578125 57.421875 76 64 76 C 70.578125 76 76 70.578125 76 64 C 76 57.421875 70.578125 52 64 52 Z M 64 60 C 66.257812 60 68 61.742188 68 64 C 68 66.257812 66.257812 68 64 68 C 61.742188 68 60 66.257812 60 64 C 60 61.742188 61.742188 60 64 60 Z M 37.726562 74.304688 C 38.382812 75.539062 39.039062 76.769531 39.75 78 C 40.460938 79.230469 41.199219 80.417969 41.9375 81.601562 C 39.929688 81.144531 37.976562 80.644531 36.148438 80.078125 C 36.570312 78.214844 37.117188 76.273438 37.726562 74.304688 Z M 90.273438 74.304688 C 90.882812 76.273438 91.429688 78.214844 91.851562 80.078125 C 90.023438 80.644531 88.070312 81.144531 86.0625 81.601562 C 86.800781 80.417969 87.539062 79.230469 88.25 78 C 88.960938 76.769531 89.617188 75.539062 90.273438 74.304688 Z M 34.890625 88.046875 C 39.089844 89.292969 43.625 90.277344 48.4375 90.945312 C 51.425781 94.785156 54.554688 98.21875 57.734375 101.234375 C 53.917969 103.890625 50.296875 105.585938 47.273438 106.257812 C 44.179688 106.945312 41.855469 106.640625 40 105.570312 C 38.144531 104.5 36.71875 102.640625 35.765625 99.617188 C 34.835938 96.664062 34.5 92.679688 34.890625 88.046875 Z M 93.109375 88.046875 C 93.5 92.679688 93.164062 96.664062 92.234375 99.617188 C 91.28125 102.640625 89.855469 104.5 88 105.570312 C 86.144531 106.640625 83.820312 106.945312 80.726562 106.257812 C 77.703125 105.585938 74.082031 103.890625 70.265625 101.234375 C 73.445312 98.21875 76.574219 94.785156 79.5625 90.945312 C 84.375 90.277344 88.910156 89.292969 93.109375 88.046875 Z M 59.789062 91.90625 C 61.183594 91.957031 62.578125 92 64 92 C 65.421875 92 66.816406 91.957031 68.210938 91.90625 C 66.808594 93.417969 65.40625 94.863281 64 96.164062 C 62.59375 94.863281 61.191406 93.417969 59.789062 91.90625 Z M 59.789062 91.90625 "/>
</g>
</svg>
